
<svg xmlns="http://www.w3.org/2000/svg" viewBox="0 0 512 512" fill="#ED1A37">
  <path d="M256 0C114.6 0 0 114.6 0 256s114.6 256 256 256 256-114.6 256-256S397.4 0 256 0zm0 476c-121.4 0-220-98.6-220-220S134.6 36 256 36s220 98.6 220 220-98.6 220-220 220z"/>
  <path d="M395.7 116.3c-8.8-8.8-23-8.8-31.8 0L256 224.2 148.1 116.3c-8.8-8.8-23-8.8-31.8 0s-8.8 23 0 31.8L224.2 256l-107.9 107.9c-8.8 8.8-8.8 23 0 31.8 4.4 4.4 10.1 6.6 15.9 6.6s11.5-2.2 15.9-6.6L256 287.8l107.9 107.9c4.4 4.4 10.1 6.6 15.9 6.6s11.5-2.2 15.9-6.6c8.8-8.8 8.8-23 0-31.8L287.8 256l107.9-107.9c8.8-8.8 8.8-23 0-31.8z"/>
</svg>
